<svg width="80" height="80" viewBox="0 0 80 80" fill="none" xmlns="http://www.w3.org/2000/svg">
  <path d="M13 17C14.2806 17 15.5087 17.5087 16.4142 18.4142L17 19C18.2806 20.2806 19 22.0174 19 23.8284V62.7574C19 65.4739 20.0791 68.0791 22 70C23.8918 71.8918 26.4475 72.9672 29.1195 72.9993" stroke="#C2CCDE" stroke-linecap="round" stroke-linejoin="round" />
  <path d="M12.1716 17H11.8284C10.0174 17 8.28058 17.7194 7 19C5.71942 20.2806 5 22.0174 5 23.8284V34C5 34.5523 5.44772 35 6 35H18C18.5523 35 19 34.5523 19 34V23.8284C19 22.0174 18.2806 20.2806 17 19L16.9989 18.9989C16.2855 18.2858 15.4305 17.7468 14.5 17.4092C13.7605 17.141 12.9733 17 12.1716 17Z" stroke="#C2CCDE" stroke-linecap="round" stroke-linejoin="round" />
  <path d="M35.8284 70.1716L36 70C37.9209 68.0791 39 65.4739 39 62.7574V59C39 58.4477 39.4477 58 40 58H74C74.5523 58 75 58.4477 75 59V62.7574C75 65.4739 73.9209 68.0791 72 70C70.0791 71.9209 67.4739 73 64.7574 73H29C31.5612 73 34.0174 71.9826 35.8284 70.1716Z" stroke="#C2CCDE" stroke-linecap="round" stroke-linejoin="round" />
  <path d="M46.9526 17H13" stroke="#C2CCDE" stroke-linecap="round" stroke-linejoin="round" />
  <path d="M63.5467 10.0232C65.3377 9.18333 67.5378 9.50322 69.0173 10.9827C70.4967 12.4622 70.8166 14.6622 69.9767 16.4533C71.8371 17.1259 73.1666 18.9077 73.1666 21C73.1666 23.0923 71.8371 24.8742 69.9767 25.5468C70.8166 27.3379 70.4967 29.5379 69.0173 31.0174C67.5378 32.4969 65.3377 32.8167 63.5467 31.9768C62.8741 33.8372 61.0922 35.1667 58.9999 35.1667C56.9076 35.1667 55.1258 33.8372 54.4532 31.9768C52.6621 32.8167 50.462 32.4969 48.9826 31.0174C47.5031 29.5379 47.1832 27.3379 48.0231 25.5468C46.1627 24.8742 44.8333 23.0923 44.8333 21C44.8333 18.9078 46.1627 17.1259 48.0231 16.4533C47.1832 14.6622 47.5031 12.4622 48.9826 10.9827C50.462 9.50322 52.6621 9.18333 54.4532 10.0232C55.1258 8.16285 56.9076 6.83337 58.9999 6.83337C61.0922 6.83337 62.8741 8.16285 63.5467 10.0232Z" stroke="#C2CCDE" stroke-linecap="round" stroke-linejoin="round" />
  <path d="M63 58.0001V33.0474" stroke="#C2CCDE" stroke-linecap="round" stroke-linejoin="round" />
</svg>